<?xml version="1.0" encoding="UTF-8" standalone="no"?>
<!DOCTYPE svg PUBLIC "-//W3C//DTD SVG 1.1//EN" "http://www.w3.org/Graphics/SVG/1.1/DTD/svg11.dtd">
<svg xmlns="http://www.w3.org/2000/svg" version="1.1" viewBox="0 0 1024 254">
<path fill="#ffffff" d="M 0.00,0.00 Q 512.00,0.00 1024.00,0.00 Q 1024.00,127.00 1024.00,254.00 Q 512.00,254.00 0.00,254.00 Q 0.00,127.00 0.00,0.00 ZM 564.19,33.63 A 11.47 11.47 0.0 0 0 552.72,22.16 A 11.47 11.47 0.0 0 0 541.25,33.63 A 11.47 11.47 0.0 0 0 552.72,45.10 A 11.47 11.47 0.0 0 0 564.19,33.63 ZM 538.20,51.43 A 0.82,0.81 83.7 0 1 539.27,52.30 Q 538.97,54.91 540.45,53.85 Q 541.15,53.35 541.20,53.32 Q 553.35,45.89 565.67,53.61 Q 567.03,54.46 566.88,52.86 Q 566.73,51.21 568.21,51.87 Q 569.28,52.34 569.46,52.40 Q 577.46,55.03 585.94,57.72 A 0.64,0.63 -72.6 0 0 586.73,57.30 L 588.83,50.78 A 0.55,0.53 -70.9 0 0 588.52,50.11 L 565.06,41.02 A 1.43,1.43 -59.2 0 0 563.45,41.43 Q 558.37,47.38 550.49,46.31 Q 545.57,45.65 542.43,41.80 A 1.98,1.89 -29.5 0 0 540.24,41.25 L 518.25,49.59 A 0.35,0.34 -27.6 0 0 518.08,50.11 Q 519.79,52.61 520.33,56.29 A 1.12,1.11 -13.8 0 0 521.81,57.17 L 538.20,51.43 ZM 180.77,64.52 A 19.45 19.45 0.0 0 0 161.32,45.07 A 19.45 19.45 0.0 0 0 141.87,64.52 A 19.45 19.45 0.0 0 0 161.32,83.97 A 19.45 19.45 0.0 0 0 180.77,64.52 ZM 532.69,112.82 Q 532.75,131.23 532.80,149.63 Q 532.81,152.48 533.85,155.05 Q 536.55,161.73 539.61,168.26 Q 541.43,172.17 541.15,174.13 Q 540.55,178.16 534.18,177.40 A 1.27,1.27 3.2 0 0 532.76,178.67 Q 532.87,194.25 532.77,210.61 Q 532.77,210.74 532.63,216.39 Q 532.50,221.63 533.25,223.25 Q 535.47,228.01 539.96,228.91 Q 544.29,229.78 547.55,227.06 Q 551.01,224.18 551.00,218.50 Q 550.95,199.97 551.06,182.14 Q 551.07,180.19 549.80,178.71 Q 546.80,175.22 546.75,171.33 Q 546.73,169.41 548.65,169.34 Q 551.50,169.23 551.01,167.00 Q 550.44,164.44 554.37,165.30 A 0.84,0.83 -75.6 0 1 554.99,166.36 Q 554.87,166.76 555.46,167.03 A 0.83,0.69 -53.3 0 0 556.29,166.83 Q 559.02,164.13 562.77,164.01 A 2.04,2.04 -81.7 0 0 564.63,162.62 Q 565.03,161.41 565.56,160.45 Q 566.21,159.25 567.23,158.88 Q 569.18,158.16 570.06,160.69 Q 570.80,162.80 573.31,167.92 A 0.19,0.19 49.8 0 0 573.63,167.95 Q 573.72,167.83 573.80,167.70 Q 573.94,167.46 573.93,167.14 Q 573.45,139.95 573.99,112.76 A 0.47,0.45 -86.6 0 1 574.49,112.30 Q 583.86,113.26 588.55,107.01 Q 590.74,104.08 592.52,95.94 Q 596.89,75.97 601.25,56.00 Q 601.79,53.52 600.07,51.51 Q 598.68,49.89 596.33,49.46 Q 592.31,48.72 590.23,51.82 Q 589.27,53.25 588.38,57.41 Q 584.58,75.15 580.43,92.82 A 0.61,0.53 -78.5 0 1 579.81,93.29 L 575.21,92.56 Q 573.20,92.24 572.75,93.98 Q 571.25,99.84 567.65,104.74 Q 566.39,106.44 564.30,106.74 Q 560.11,107.34 558.03,104.73 Q 556.44,102.72 556.71,99.45 Q 556.96,96.48 558.50,93.99 Q 559.43,92.49 557.68,92.50 L 547.97,92.54 Q 545.55,92.55 546.77,94.67 Q 550.07,100.44 547.17,104.36 Q 544.98,107.34 541.28,106.80 Q 537.43,106.23 535.47,102.16 Q 533.43,97.93 532.50,93.62 A 1.62,1.45 -12.9 0 0 530.57,92.56 L 527.69,93.26 A 0.57,0.50 76.6 0 1 527.07,92.82 Q 522.53,73.59 518.50,54.25 Q 517.69,50.35 514.16,49.48 Q 511.12,48.73 508.62,50.53 Q 506.09,52.36 506.26,55.65 Q 506.28,56.02 507.29,60.85 Q 511.41,80.57 516.08,100.17 Q 517.22,104.96 519.15,107.29 Q 523.86,112.99 532.18,112.36 A 0.47,0.46 -2.3 0 1 532.69,112.82 ZM 696.62,70.46 A 19.52 19.52 0.0 0 0 677.10,50.94 A 19.52 19.52 0.0 0 0 657.58,70.46 A 19.52 19.52 0.0 0 0 677.10,89.98 A 19.52 19.52 0.0 0 0 696.62,70.46 ZM 572.76,70.77 A 19.59 19.59 0.0 0 0 553.17,51.18 A 19.59 19.59 0.0 0 0 533.58,70.77 A 19.59 19.59 0.0 0 0 553.17,90.36 A 19.59 19.59 0.0 0 0 572.76,70.77 ZM 298.90,73.72 A 19.46 19.46 0.0 0 0 279.44,54.26 A 19.46 19.46 0.0 0 0 259.98,73.72 A 19.46 19.46 0.0 0 0 279.44,93.18 A 19.46 19.46 0.0 0 0 298.90,73.72 ZM 451.01,72.57 A 16.98 16.98 0.0 0 0 434.03,55.59 A 16.98 16.98 0.0 0 0 417.05,72.57 A 16.98 16.98 0.0 0 0 434.03,89.55 A 16.98 16.98 0.0 0 0 451.01,72.57 ZM 878.07,77.24 A 16.87 16.87 0.0 0 0 861.20,60.37 A 16.87 16.87 0.0 0 0 844.33,77.24 A 16.87 16.87 0.0 0 0 861.20,94.11 A 16.87 16.87 0.0 0 0 878.07,77.24 ZM 91.86,80.20 A 16.60 16.60 0.0 0 0 75.26,63.60 A 16.60 16.60 0.0 0 0 58.66,80.20 A 16.60 16.60 0.0 0 0 75.26,96.80 A 16.60 16.60 0.0 0 0 91.86,80.20 ZM 761.91,90.54 A 20.36 20.36 0.0 0 0 741.55,70.18 A 20.36 20.36 0.0 0 0 721.19,90.54 A 20.36 20.36 0.0 0 0 741.55,110.90 A 20.36 20.36 0.0 0 0 761.91,90.54 ZM 816.85,77.69 Q 817.05,73.25 814.05,71.37 Q 811.15,69.55 807.77,70.78 Q 803.83,72.21 804.23,77.49 A 0.93,0.92 -13.7 0 1 803.67,78.41 Q 796.81,81.33 793.53,87.06 Q 790.35,92.61 791.18,99.37 Q 792.00,106.06 796.86,110.65 Q 801.03,114.59 806.53,115.79 Q 812.35,117.06 817.94,114.69 Q 825.92,111.29 828.64,103.80 Q 831.20,96.76 828.54,89.71 Q 825.65,82.04 817.27,78.38 A 0.71,0.69 -77.1 0 1 816.85,77.69 ZM 186.30,207.25 L 189.46,207.44 A 0.61,0.49 -88.5 0 1 189.93,208.06 Q 189.89,214.93 190.17,221.78 Q 190.27,224.00 190.98,225.05 Q 192.11,226.71 194.25,226.75 Q 199.35,226.86 199.31,221.50 Q 199.25,214.62 199.25,207.77 A 0.55,0.54 2.9 0 1 199.85,207.23 Q 203.34,207.62 203.62,205.05 Q 203.66,204.69 203.30,201.46 Q 201.72,187.17 199.90,172.14 A 0.67,0.66 81.4 0 1 200.44,171.40 Q 214.19,168.89 217.75,156.25 Q 218.45,153.77 217.98,152.16 A 1.34,1.11 55.2 0 1 218.06,151.24 Q 228.82,131.71 229.00,109.67 A 0.54,0.53 12.7 0 1 229.77,109.19 Q 232.07,110.25 231.27,108.74 Q 230.57,107.45 229.92,106.37 A 0.76,0.76 68.9 0 1 230.42,105.24 Q 236.10,104.12 239.34,100.24 Q 242.20,96.81 242.98,91.34 Q 244.34,81.74 236.19,75.81 Q 232.34,73.01 227.62,73.67 Q 223.58,74.24 220.14,77.27 Q 213.16,83.43 215.44,93.56 Q 217.48,102.67 226.82,105.31 A 0.48,0.42 19.5 0 1 227.16,105.91 L 226.33,107.64 A 1.40,0.53 -57.7 0 0 226.14,108.56 Q 226.42,109.52 227.64,108.81 Q 228.31,108.42 228.27,109.20 Q 227.64,123.53 223.61,136.71 Q 221.61,143.26 217.73,149.98 A 0.83,0.83 18.1 0 1 216.92,150.39 Q 212.04,149.81 211.07,153.27 Q 207.57,165.62 194.50,163.75 Q 191.56,163.33 184.58,163.59 Q 180.46,163.74 177.71,165.14 Q 170.94,168.58 167.44,175.72 Q 163.73,183.27 163.25,190.25 Q 163.06,192.98 165.15,193.96 Q 167.04,194.84 168.66,193.78 Q 170.31,192.68 170.56,190.06 Q 171.00,185.54 174.20,178.32 Q 174.33,178.03 174.53,177.89 Q 175.16,177.46 175.05,178.50 Q 173.69,191.37 172.20,204.23 Q 172.02,205.78 172.76,206.41 Q 173.68,207.20 175.37,206.94 A 0.72,0.71 -5.9 0 1 176.19,207.60 Q 176.64,214.24 176.50,220.00 Q 176.45,222.14 176.81,223.64 Q 177.23,225.41 178.97,226.24 Q 181.96,227.66 184.15,225.53 Q 185.49,224.22 185.60,221.52 Q 185.87,214.67 185.82,207.81 A 0.55,0.45 -89.1 0 1 186.30,207.25 ZM 533.38,81.73 Q 532.14,92.41 537.50,101.91 Q 538.72,104.08 540.24,104.88 Q 542.61,106.11 544.70,104.63 Q 546.49,103.36 546.86,101.23 Q 547.23,99.11 546.06,96.94 Q 544.71,94.41 544.14,91.18 A 1.16,1.16 -77.3 0 0 543.65,90.41 Q 538.37,86.77 534.78,81.39 Q 533.62,79.64 533.38,81.73 ZM 571.18,82.44 Q 567.91,86.35 562.43,90.03 A 2.60,2.58 -5.9 0 0 561.47,91.20 Q 560.25,94.06 559.28,96.41 Q 557.98,99.59 558.28,101.38 Q 558.65,103.58 560.56,104.75 Q 562.20,105.76 564.09,105.26 Q 566.15,104.72 567.19,102.94 Q 572.44,93.97 571.97,82.71 Q 571.92,81.56 571.18,82.44 ZM 161.35,200.59 Q 161.47,200.69 161.50,201.00 Q 162.27,208.65 163.07,216.30 Q 164.04,225.61 174.63,226.92 A 0.69,0.69 0.7 0 0 175.40,226.15 Q 174.43,218.48 174.72,211.82 Q 174.73,211.74 174.87,210.69 Q 175.13,208.71 172.83,208.45 Q 170.79,208.22 170.72,206.17 Q 170.54,200.79 171.66,194.86 Q 171.84,193.86 170.98,194.41 Q 165.47,197.93 162.89,194.22 Q 161.33,191.98 161.86,187.89 Q 162.75,180.99 165.91,174.70 Q 170.32,165.92 179.29,162.58 Q 180.23,162.23 179.40,161.67 Q 173.12,157.41 171.75,150.94 Q 170.41,144.64 173.55,138.89 Q 176.17,134.09 181.39,132.02 Q 186.15,130.12 191.26,131.02 Q 198.98,132.39 202.69,139.81 Q 205.43,145.31 203.86,152.27 A 1.34,1.14 -57.8 0 0 203.99,153.18 Q 205.05,154.85 207.12,155.63 A 1.27,1.26 -75.3 0 0 208.81,154.64 Q 209.17,152.26 210.87,150.11 Q 212.16,148.48 214.68,148.81 A 2.34,2.33 19.5 0 0 216.96,147.73 Q 220.21,142.53 221.40,136.75 A 1.47,1.39 38.3 0 0 221.26,135.80 Q 211.23,116.79 200.70,98.05 Q 197.55,92.44 196.72,91.47 Q 194.12,88.45 189.95,87.26 Q 184.41,85.66 180.75,85.50 Q 164.70,84.79 141.76,85.73 Q 135.38,85.99 129.61,88.67 Q 126.21,90.25 125.31,91.81 Q 118.70,103.29 112.51,114.97 A 1.77,1.76 -46.1 0 0 112.54,116.65 Q 121.77,132.91 118.46,151.44 Q 118.24,152.64 118.93,153.61 Q 119.26,154.08 119.31,154.50 Q 122.57,183.92 135.75,210.32 Q 135.78,210.39 136.96,212.51 Q 138.26,214.85 138.74,217.50 Q 140.03,224.67 147.04,226.35 Q 151.65,227.46 154.94,224.94 Q 159.42,221.50 159.75,215.25 Q 159.88,212.86 161.03,200.87 Q 161.08,200.36 161.35,200.59 ZM 386.00,104.28 A 17.59 17.59 0.0 0 0 368.41,86.69 A 17.59 17.59 0.0 0 0 350.82,104.28 A 17.59 17.59 0.0 0 0 368.41,121.87 A 17.59 17.59 0.0 0 0 386.00,104.28 ZM 418.43,180.31 Q 418.37,200.59 418.70,220.86 Q 418.76,224.83 420.11,226.81 Q 422.53,230.38 427.07,229.43 Q 429.83,228.85 431.24,226.98 Q 432.75,224.98 432.75,222.00 Q 432.75,201.75 432.60,181.50 Q 432.58,178.79 434.49,179.82 A 1.48,1.46 14.4 0 1 435.26,181.11 Q 435.21,202.26 435.30,220.94 Q 435.32,224.79 436.51,226.67 Q 438.46,229.73 442.28,229.61 Q 444.99,229.53 446.92,228.03 Q 449.22,226.24 449.25,223.25 Q 449.48,202.38 449.50,180.45 A 0.78,0.73 -0.4 0 1 450.27,179.72 L 461.49,179.54 A 0.47,0.45 85.0 0 0 461.92,179.00 L 451.58,111.99 A 1.02,0.91 64.5 0 1 451.83,111.13 Q 453.38,109.59 453.87,112.32 Q 457.34,131.76 460.84,151.18 Q 461.36,154.08 462.99,156.48 Q 463.37,157.04 463.84,157.14 Q 464.78,157.33 464.50,155.75 Q 463.92,152.49 465.56,151.81 L 470.97,149.59 A 0.68,0.62 -14.5 0 0 471.40,148.93 Q 471.23,147.09 470.31,141.94 Q 467.47,126.01 464.37,110.13 Q 463.17,104.00 463.13,103.88 Q 462.26,100.66 460.50,98.00 Q 456.85,92.49 450.01,92.12 Q 446.80,91.94 445.75,92.00 Q 436.02,92.54 426.28,92.09 Q 424.64,92.01 422.73,92.14 Q 420.95,92.25 419.16,92.27 Q 415.71,92.31 413.93,92.98 Q 408.48,95.03 406.04,100.77 Q 404.65,104.04 404.01,107.55 Q 399.95,129.79 395.93,152.03 Q 395.36,155.21 397.56,156.44 Q 402.76,159.34 405.34,155.94 Q 406.49,154.41 407.35,149.79 Q 410.85,131.08 414.15,112.33 Q 414.61,109.72 415.85,110.87 A 1.88,1.87 -64.0 0 1 416.42,112.54 L 406.09,178.78 A 0.79,0.79 -85.3 0 0 406.86,179.69 L 417.94,179.81 A 0.49,0.49 -89.4 0 1 418.43,180.31 ZM 679.19,165.30 Q 679.54,191.46 679.51,217.61 Q 679.50,221.86 680.36,223.76 Q 681.82,227.01 685.31,228.19 Q 691.39,230.24 695.18,225.71 Q 696.63,223.99 697.09,221.87 Q 697.50,219.99 697.50,217.50 Q 697.50,191.25 697.50,165.02 A 0.77,0.64 13.6 0 0 697.03,164.39 L 693.63,162.98 A 1.13,0.90 26.6 0 0 692.35,163.25 Q 690.85,165.58 690.54,168.19 Q 690.53,168.21 690.46,173.31 Q 690.14,196.79 690.24,220.27 Q 690.26,223.88 690.18,224.22 Q 689.62,226.74 686.30,226.69 Q 683.59,226.65 683.46,223.94 Q 683.11,216.30 683.25,208.30 Q 683.50,194.00 683.50,192.69 Q 683.51,180.59 683.52,168.50 Q 683.53,162.51 687.33,158.09 Q 687.36,158.05 688.10,157.34 Q 689.50,155.99 689.50,153.25 Q 689.50,150.97 691.50,148.06 Q 693.95,144.48 696.47,140.89 Q 697.50,139.42 697.50,137.63 Q 697.50,125.52 697.50,113.05 Q 697.50,112.39 697.63,111.97 Q 698.07,110.52 698.98,111.82 A 1.77,1.30 -69.9 0 1 699.25,112.76 L 699.31,135.44 Q 699.31,135.98 699.60,135.54 L 710.10,119.81 Q 711.15,118.24 711.21,116.08 Q 711.33,111.47 711.21,107.52 Q 711.05,102.19 709.44,99.28 Q 707.24,95.30 703.01,93.57 Q 700.39,92.50 694.85,92.50 Q 677.42,92.50 660.00,92.50 Q 653.43,92.50 649.46,96.13 Q 647.17,98.22 644.32,105.18 Q 631.98,135.33 628.94,142.94 Q 628.14,144.92 628.50,147.01 Q 628.83,148.96 630.49,150.34 Q 634.05,153.32 637.47,150.87 Q 639.35,149.52 640.86,145.79 Q 647.60,129.18 654.31,112.56 Q 654.80,111.35 656.00,111.84 A 0.82,0.70 -80.6 0 1 656.44,112.57 Q 656.53,165.78 656.80,218.99 Q 656.82,222.01 657.70,223.71 Q 658.90,226.04 661.06,227.40 Q 664.04,229.28 667.71,228.49 Q 671.73,227.62 673.60,224.04 Q 674.75,221.83 674.74,217.26 Q 674.67,191.26 674.99,165.25 A 0.52,0.49 -88.9 0 1 675.49,164.74 L 678.70,164.79 A 0.51,0.50 -89.4 0 1 679.19,165.30 ZM 90.06,111.02 Q 90.80,111.06 90.50,112.00 Q 88.32,118.76 86.15,125.52 A 1.55,1.51 -46.2 0 0 86.16,126.47 Q 90.55,139.31 93.64,152.03 Q 94.13,154.05 93.20,155.92 Q 87.24,167.87 81.81,180.05 Q 80.81,182.30 80.85,184.79 Q 81.27,213.97 81.75,220.00 Q 82.00,223.12 84.25,224.94 Q 86.24,226.56 89.10,226.44 Q 93.08,226.29 94.80,222.92 Q 95.78,220.98 95.65,216.91 Q 95.17,202.71 94.76,188.51 Q 94.67,185.47 95.56,183.56 Q 99.23,175.76 106.46,164.13 Q 107.56,162.36 107.47,164.10 Q 107.45,164.42 107.28,164.73 Q 103.65,171.44 100.11,178.19 Q 98.63,181.01 98.33,182.89 Q 97.88,185.71 98.69,188.06 Q 102.91,200.38 111.58,221.65 Q 112.53,223.97 113.56,224.90 Q 115.11,226.31 117.25,226.50 Q 121.25,226.86 123.51,224.10 Q 125.01,222.25 125.01,219.96 Q 125.00,217.94 124.06,215.44 Q 118.64,200.93 112.99,186.49 Q 112.29,184.67 112.53,182.74 Q 114.25,169.27 115.86,155.57 Q 115.87,155.47 116.85,148.97 Q 117.56,144.19 117.39,139.39 Q 117.16,133.35 114.81,126.88 Q 108.62,109.79 94.93,97.33 Q 90.88,93.64 85.89,95.98 Q 81.63,97.97 79.81,101.81 Q 76.14,109.58 73.49,119.45 Q 72.89,121.69 71.84,123.72 Q 70.89,125.57 68.74,126.87 Q 59.99,132.13 50.88,137.36 Q 49.89,137.93 48.75,137.98 Q 37.78,138.43 31.94,146.90 Q 30.28,149.32 29.75,152.75 Q 24.68,185.36 19.59,217.98 Q 19.14,220.84 19.25,223.70 A 2.02,2.01 8.1 0 0 20.64,225.54 Q 24.33,226.77 24.85,223.17 Q 25.88,215.93 27.05,209.79 A 1.90,1.88 -84.3 0 1 28.91,208.25 L 69.19,208.55 A 0.60,0.60 -4.0 0 1 69.77,209.05 Q 70.91,215.75 72.00,222.46 Q 72.31,224.37 73.21,225.23 Q 74.85,226.81 76.79,225.24 Q 78.11,224.16 77.86,222.48 Q 72.59,187.16 67.50,153.00 Q 66.79,148.24 64.26,144.17 A 0.47,0.47 59.5 0 1 64.43,143.51 Q 70.95,139.82 77.27,135.79 Q 79.71,134.24 81.07,132.02 Q 84.11,127.11 85.81,121.52 Q 87.35,116.43 89.37,111.52 A 0.80,0.65 -75.0 0 1 90.06,111.02 ZM 234.88,156.83 A 1.41,1.40 28.6 0 1 235.36,158.44 Q 222.99,192.51 211.17,226.43 Q 210.78,227.55 210.17,228.55 Q 209.31,229.93 209.18,230.62 Q 208.72,233.04 211.58,232.22 A 0.84,0.82 87.8 0 0 212.16,231.58 Q 212.93,227.76 213.81,225.31 Q 225.73,192.21 237.15,159.04 A 1.55,1.55 -80.6 0 1 238.60,158.00 Q 240.68,157.99 242.16,156.93 Q 243.27,156.14 244.05,154.01 Q 250.95,135.15 257.10,116.03 Q 257.93,113.46 258.75,115.16 Q 259.00,115.66 259.00,116.38 Q 259.01,163.94 259.00,211.50 Q 259.00,217.10 259.17,220.28 Q 259.18,220.36 259.18,222.71 Q 259.19,225.50 260.81,227.44 Q 265.55,233.08 271.93,230.22 Q 273.92,229.33 275.21,227.80 Q 276.74,225.98 277.00,224.00 Q 277.59,219.43 277.25,212.53 Q 277.10,209.60 275.88,205.13 Q 272.03,191.11 276.24,177.09 Q 277.07,174.34 277.18,172.69 Q 277.33,170.61 277.21,168.17 A 0.81,0.81 4.4 0 1 278.18,167.34 Q 281.05,167.92 282.92,164.81 Q 284.40,162.33 286.51,164.40 L 296.23,173.89 Q 298.05,175.68 296.86,177.81 Q 287.49,194.48 299.01,208.17 Q 299.75,209.05 299.76,207.90 L 299.99,174.51 A 3.33,2.74 26.5 0 0 299.01,172.32 L 288.75,162.27 Q 286.55,160.11 289.05,158.07 Q 293.91,154.11 299.37,151.06 A 0.90,0.87 -14.4 0 0 299.83,150.31 L 300.00,136.07 A 1.06,1.04 7.9 0 0 299.21,135.05 Q 294.66,133.90 292.48,130.51 Q 290.32,127.15 291.08,123.19 Q 291.82,119.34 295.31,116.31 Q 302.48,110.11 310.28,102.91 A 1.81,1.81 -40.4 0 0 310.48,100.47 Q 307.98,97.27 303.99,96.11 Q 301.87,95.50 296.46,95.50 Q 282.29,95.50 268.12,95.50 Q 257.73,95.50 255.93,95.97 Q 249.31,97.70 246.29,105.02 Q 244.63,109.05 242.25,117.25 Q 238.01,131.88 233.79,146.52 Q 232.47,151.12 232.43,151.64 Q 232.16,154.81 234.88,156.83 ZM 856.78,113.86 Q 857.44,113.91 857.98,114.79 Q 858.51,115.66 858.80,115.99 Q 860.39,117.78 864.06,122.19 Q 870.31,129.68 879.45,135.50 Q 885.27,139.20 885.35,139.26 Q 889.91,142.29 894.52,145.25 Q 898.11,147.55 901.00,145.50 Q 904.40,143.09 903.25,139.72 Q 902.58,137.75 899.68,135.74 Q 890.74,129.52 887.56,127.69 Q 876.19,121.14 868.25,110.70 Q 866.73,108.70 865.11,106.78 Q 864.79,106.41 864.63,106.01 Q 863.73,103.78 865.70,105.38 Q 866.03,105.65 866.40,106.05 Q 870.47,110.52 874.35,115.23 Q 875.56,116.70 875.90,114.82 Q 876.62,110.80 875.62,106.33 Q 874.22,100.06 868.28,97.77 Q 858.05,93.82 850.66,101.20 A 1.81,1.75 74.2 0 0 850.20,102.06 Q 849.02,107.33 849.16,112.69 Q 849.37,120.37 849.37,120.44 Q 849.19,128.23 848.79,135.58 A 4.79,4.64 30.9 0 0 849.55,138.42 L 859.38,153.59 Q 860.35,155.09 860.15,156.89 Q 859.94,158.85 861.50,160.50 Q 863.39,162.50 863.44,162.57 Q 865.92,166.14 866.01,171.13 A 0.66,0.66 0.9 0 0 866.64,171.78 Q 873.78,172.11 880.25,172.01 Q 884.73,171.94 883.33,168.04 Q 882.78,166.53 882.75,166.44 Q 878.23,151.39 875.11,135.29 A 2.29,2.23 15.0 0 0 874.31,133.95 Q 863.86,125.45 856.23,114.83 Q 855.47,113.77 856.78,113.86 ZM 349.67,156.16 Q 348.28,156.21 349.21,155.17 Q 355.41,148.31 361.44,141.42 Q 365.87,136.35 366.64,133.17 Q 368.21,126.74 361.44,122.56 Q 351.44,116.40 324.61,101.39 Q 322.05,99.96 320.57,99.69 Q 317.92,99.20 316.06,100.56 Q 310.09,104.94 298.06,116.18 Q 294.50,119.50 294.34,119.70 Q 292.55,121.89 292.51,124.68 Q 292.45,128.26 295.16,131.07 Q 298.47,134.51 303.06,133.06 Q 305.48,132.29 309.25,128.94 Q 314.68,124.12 320.37,119.05 A 0.91,0.89 38.9 0 1 321.42,118.95 L 331.88,125.01 A 0.64,0.64 -54.4 0 1 332.04,125.99 Q 322.95,136.21 313.81,146.81 Q 311.76,149.19 309.36,149.65 Q 307.73,149.96 307.67,149.97 Q 297.51,152.82 289.71,159.68 A 0.77,0.77 46.7 0 0 289.68,160.80 L 299.41,170.53 A 1.13,1.13 -41.1 0 0 300.90,170.63 Q 311.50,162.49 323.27,164.53 Q 330.54,165.78 336.27,170.45 Q 342.23,175.30 344.81,182.60 Q 347.28,189.57 345.96,196.70 Q 344.60,203.99 339.66,209.95 A 0.66,0.64 -47.8 0 0 339.69,210.82 L 349.71,220.57 A 0.84,0.83 -48.3 0 0 350.94,220.49 Q 368.46,199.04 357.93,173.28 A 0.37,0.36 -13.0 0 1 358.25,172.78 L 367.99,172.22 A 0.78,0.77 0.9 0 1 368.81,173.06 Q 367.38,189.24 366.25,204.75 Q 365.93,209.12 368.00,211.88 Q 369.98,214.53 373.93,214.93 Q 379.21,215.47 381.64,211.14 Q 382.89,208.92 383.30,203.61 Q 384.89,182.90 385.50,176.50 Q 386.17,169.45 386.25,163.41 Q 386.29,160.24 384.96,158.43 Q 381.92,154.30 375.50,154.75 Q 362.17,155.69 349.67,156.16 ZM 777.32,139.94 L 762.06,105.17 A 0.58,0.58 53.7 0 0 761.09,105.02 Q 758.43,107.99 755.29,110.21 Q 752.06,112.49 748.37,113.59 Q 736.08,117.25 725.81,108.42 Q 724.07,106.93 722.22,105.60 A 0.49,0.48 -55.9 0 0 721.53,105.74 Q 707.13,127.58 692.93,149.56 Q 691.75,151.39 691.46,152.61 Q 691.06,154.28 691.26,156.08 A 1.13,1.11 -23.4 0 1 690.86,157.07 Q 685.32,161.62 685.32,168.50 Q 685.29,195.30 685.07,222.09 Q 685.06,223.44 685.50,224.20 Q 686.48,225.89 688.14,224.36 A 1.25,1.12 71.5 0 0 688.51,223.50 Q 688.82,195.25 689.00,167.00 Q 689.02,163.42 692.61,160.55 A 0.63,0.58 44.8 0 1 693.38,160.58 Q 697.10,163.72 702.79,162.21 A 1.00,1.00 68.9 0 1 703.94,162.72 Q 705.47,165.67 705.81,168.15 Q 706.19,170.96 708.49,169.92 A 0.95,0.91 82.2 0 0 709.02,169.19 Q 709.65,164.56 706.62,160.02 A 1.65,1.62 44.9 0 1 706.60,158.21 L 720.62,136.79 Q 721.25,135.83 721.25,136.98 Q 721.25,177.25 721.25,217.50 Q 721.25,222.00 724.56,224.53 Q 727.38,226.69 731.37,226.51 Q 736.87,226.27 739.08,221.53 Q 740.25,219.03 740.25,213.29 Q 740.27,190.02 740.50,166.76 A 0.56,0.56 -7.4 0 1 740.92,166.22 Q 743.78,165.46 743.78,167.25 Q 743.75,189.17 743.75,211.09 Q 743.75,218.17 744.01,219.39 Q 745.08,224.34 750.00,226.05 Q 753.08,227.13 756.02,226.21 Q 759.33,225.19 761.13,222.33 Q 762.49,220.18 762.54,215.87 Q 762.93,182.53 762.75,148.72 Q 762.74,146.79 763.51,148.56 Q 766.53,155.48 769.39,162.35 Q 770.97,166.14 772.74,167.34 Q 775.47,169.18 779.28,168.18 Q 782.45,167.35 783.81,164.81 Q 785.07,162.48 789.50,152.21 Q 790.09,150.85 790.23,152.01 Q 790.25,152.23 790.21,152.50 Q 786.06,175.60 782.02,198.71 Q 781.39,202.34 785.29,201.73 Q 787.39,201.40 789.74,201.79 A 0.61,0.60 -85.6 0 1 790.25,202.39 Q 790.25,208.76 790.25,214.80 Q 790.25,220.49 791.70,222.92 Q 794.33,227.32 800.50,226.75 Q 805.01,226.34 807.03,222.81 Q 808.24,220.70 808.41,215.96 Q 808.64,209.42 808.42,202.54 A 0.78,0.77 -13.9 0 1 808.87,201.81 Q 810.34,201.13 811.33,201.96 A 1.12,0.86 -73.3 0 1 811.66,202.82 Q 811.37,209.78 811.43,216.75 Q 811.46,220.27 813.25,222.90 Q 814.90,225.35 818.19,226.33 Q 824.93,228.33 828.42,222.55 Q 829.74,220.37 829.84,216.65 Q 830.05,209.41 830.18,202.18 A 0.54,0.52 -1.2 0 1 830.69,201.67 L 837.44,201.24 A 0.55,0.54 -2.8 0 0 837.95,200.69 Q 837.93,199.10 837.31,195.44 Q 834.46,178.43 831.40,161.46 Q 830.31,155.41 830.08,151.48 Q 829.77,146.31 830.03,141.37 Q 830.09,140.35 830.65,141.21 L 844.01,161.55 A 1.22,1.21 47.6 0 1 843.95,162.98 Q 840.94,166.77 841.50,171.95 A 1.02,0.91 -80.7 0 0 841.98,172.70 Q 843.41,173.48 844.44,172.39 A 1.54,1.03 76.6 0 0 844.77,171.50 Q 844.93,168.20 846.57,165.31 A 0.64,0.64 -65.1 0 1 847.35,165.02 Q 852.63,166.96 856.37,163.83 A 0.65,0.60 -45.5 0 1 857.15,163.79 Q 860.65,166.41 860.77,171.00 Q 861.07,183.00 860.75,195.00 Q 860.59,201.18 861.30,224.19 A 0.89,0.83 -77.5 0 0 861.74,224.94 Q 864.45,226.43 864.47,223.25 Q 864.59,201.23 864.32,179.20 Q 864.20,169.47 864.17,169.31 Q 863.33,164.10 859.12,160.33 A 1.08,1.08 -68.2 0 1 858.77,159.51 Q 858.83,156.08 857.19,153.56 Q 843.44,132.43 829.61,111.19 A 0.76,0.76 -41.1 0 0 828.40,111.11 Q 819.72,121.27 807.12,119.45 Q 802.62,118.81 798.75,116.49 Q 794.83,114.15 791.80,110.69 A 0.59,0.59 36.2 0 0 790.82,110.84 L 777.93,139.95 Q 777.62,140.65 777.32,139.94 ZM 518.50,123.34 Q 513.34,115.99 504.81,119.56 Q 502.70,120.45 500.32,123.35 A 0.48,0.46 -49.6 0 1 499.64,123.42 Q 494.71,119.01 490.79,124.58 Q 487.40,129.40 489.00,134.25 Q 489.79,136.65 490.70,134.55 Q 490.85,134.21 491.03,133.29 Q 491.52,130.69 494.08,130.92 A 1.85,1.83 -59.3 0 0 495.24,130.62 Q 497.36,129.20 498.35,129.03 Q 499.10,128.89 499.02,130.48 Q 498.96,131.74 499.57,132.93 Q 502.67,138.95 508.55,139.35 Q 513.09,139.66 516.44,136.98 Q 519.98,134.14 520.44,128.93 Q 520.52,127.97 521.07,128.76 Q 522.59,130.92 525.66,131.00 A 2.18,2.18 -7.4 0 1 527.68,132.55 Q 529.42,138.35 530.50,132.25 Q 530.92,129.88 529.61,127.28 Q 528.29,124.64 526.91,123.16 Q 523.91,119.93 519.36,123.47 A 0.60,0.60 -36.3 0 1 518.50,123.34 ZM 926.04,163.75 Q 917.15,155.57 908.75,146.89 Q 908.67,146.80 907.95,145.93 Q 906.57,144.25 905.06,146.07 A 1.26,1.25 42.3 0 0 905.14,147.76 L 923.25,165.79 Q 923.52,166.27 923.76,166.77 Q 923.99,167.23 924.06,167.79 Q 925.82,183.85 937.75,193.25 Q 951.23,203.87 967.25,201.07 Q 977.01,199.36 984.61,193.46 Q 992.66,187.21 996.30,177.67 Q 999.95,168.12 998.46,158.02 Q 996.79,146.72 988.81,138.44 Q 977.89,127.10 961.66,126.49 A 0.39,0.39 1.4 0 0 961.25,126.88 L 961.25,163.09 A 0.66,0.66 -89.5 0 1 960.59,163.75 L 926.04,163.75 ZM 312.72,145.43 A 3.96,3.95 63.4 0 0 313.50,143.07 L 313.50,129.22 Q 313.50,127.15 312.03,128.60 Q 309.92,130.68 307.82,132.58 Q 305.48,134.72 302.24,135.00 A 1.09,1.08 -2.6 0 0 301.25,136.08 L 301.25,149.06 A 0.85,0.85 80.9 0 0 302.37,149.87 Q 306.10,148.65 309.54,147.93 Q 311.11,147.60 312.72,145.43 ZM 202.76,147.30 A 14.87 14.87 0.0 0 0 187.89,132.43 A 14.87 14.87 0.0 0 0 173.02,147.30 A 14.87 14.87 0.0 0 0 187.89,162.17 A 14.87 14.87 0.0 0 0 202.76,147.30 ZM 498.96,197.06 Q 499.44,209.70 499.08,222.34 Q 498.98,225.84 499.53,227.07 Q 500.72,229.74 504.49,229.42 Q 508.51,229.07 508.50,225.75 Q 508.45,211.54 508.56,197.32 A 0.82,0.72 79.8 0 1 509.00,196.59 Q 510.69,195.84 510.75,197.75 Q 511.15,210.01 511.01,222.28 Q 511.01,222.40 510.89,224.21 Q 510.60,228.64 514.75,229.50 Q 520.31,230.66 520.29,224.75 Q 520.25,211.00 520.25,197.06 A 0.63,0.59 -0.5 0 1 520.87,196.47 L 530.70,196.24 A 0.44,0.41 82.1 0 0 531.08,195.70 L 520.50,151.23 Q 519.97,149.04 521.52,150.66 Q 523.08,152.29 524.30,154.76 Q 529.05,164.36 533.18,173.88 Q 533.91,175.56 535.74,175.75 Q 539.21,176.10 539.42,173.69 Q 539.51,172.58 538.55,170.43 Q 533.17,158.49 527.47,146.70 Q 526.17,144.01 524.79,142.86 Q 522.84,141.23 520.38,140.81 Q 520.06,140.75 513.60,140.75 Q 509.56,140.75 505.52,140.75 Q 505.40,140.75 502.49,140.62 Q 499.68,140.50 497.56,141.31 Q 483.53,146.73 469.52,152.21 Q 469.43,152.24 468.34,152.60 Q 465.55,153.50 466.50,156.50 Q 467.50,159.65 470.98,158.45 Q 483.96,154.01 496.12,150.04 Q 499.30,149.00 498.50,152.23 L 487.79,195.75 A 0.61,0.61 -83.2 0 0 488.38,196.50 L 498.43,196.55 A 0.53,0.53 88.9 0 1 498.96,197.06 ZM 615.00,158.54 L 582.34,183.13 A 1.40,0.79 17.5 0 1 581.45,183.32 L 579.68,183.15 A 0.57,0.49 -85.7 0 0 579.15,183.68 Q 578.64,190.00 579.25,194.75 Q 579.73,198.50 582.47,200.55 Q 584.85,202.33 588.37,202.33 Q 594.09,202.33 596.56,197.28 Q 597.50,195.34 597.50,192.05 Q 597.50,189.52 597.50,186.64 A 0.80,0.80 -85.3 0 0 596.83,185.85 L 586.29,184.12 Q 584.46,183.82 585.93,182.70 L 616.50,159.29 Q 621.98,155.32 627.20,151.00 Q 627.55,150.71 627.68,150.39 Q 627.95,149.69 627.31,149.58 A 1.28,0.87 -51.8 0 0 626.42,149.86 L 615.00,158.54 ZM 196.98,162.58 Q 199.08,162.68 201.52,161.73 A 1.10,1.03 -7.3 0 0 202.20,160.91 L 202.96,155.92 Q 203.28,153.79 202.20,155.67 Q 200.15,159.24 196.68,161.44 Q 195.04,162.48 196.98,162.58 ZM 564.94,165.24 L 559.73,166.35 A 1.75,0.90 -59.6 0 0 558.91,166.87 Q 555.99,169.92 549.73,170.83 A 1.52,1.51 -8.2 0 0 548.45,172.54 Q 549.56,180.52 558.82,179.74 A 1.38,1.36 -8.6 0 1 560.28,180.80 L 562.59,191.21 A 0.69,0.67 83.6 0 0 563.25,191.75 L 576.44,191.69 A 0.58,0.56 -86.6 0 0 577.00,191.18 Q 577.35,187.85 577.23,184.51 Q 577.13,181.56 575.68,178.25 Q 571.83,169.43 568.24,160.48 Q 567.88,159.57 567.49,160.43 L 565.58,164.71 A 0.92,0.87 -83.1 0 1 564.94,165.24 ZM 284.51,165.50 Q 275.93,177.28 275.64,190.81 Q 275.43,200.76 279.85,210.17 Q 285.97,223.19 298.73,229.80 Q 307.90,234.55 317.91,234.75 Q 332.32,235.03 345.00,226.00 A 0.47,0.46 49.6 0 0 345.05,225.28 L 334.65,215.01 A 0.75,0.74 51.3 0 0 333.74,214.90 Q 327.32,218.93 320.17,219.26 Q 313.25,219.58 306.70,216.45 Q 299.49,213.00 295.35,206.23 Q 291.32,199.66 291.15,192.17 Q 290.97,184.11 295.51,176.89 A 1.13,1.11 -51.6 0 0 295.36,175.49 L 285.19,165.44 A 0.45,0.45 -49.7 0 0 284.51,165.50 ZM 846.96,168.61 Q 844.93,172.31 848.98,172.10 Q 850.92,172.00 851.02,172.00 Q 854.54,172.00 858.25,172.00 A 0.94,0.94 0.1 0 0 859.19,171.06 Q 859.19,168.48 857.34,166.37 A 0.73,0.69 -30.7 0 0 856.54,166.19 Q 853.40,167.41 848.69,167.55 A 2.03,2.03 -76.4 0 0 846.96,168.61 ZM 850.04,174.23 L 846.25,195.01 Q 846.02,196.28 846.97,195.44 Q 850.94,191.95 854.91,187.91 Q 856.94,185.83 856.45,183.09 Q 856.17,181.49 856.16,181.40 Q 855.78,177.94 855.25,174.49 A 1.21,1.20 77.4 0 0 853.72,173.51 Q 852.28,173.93 850.68,173.74 A 0.60,0.58 -81.6 0 0 850.04,174.23 ZM 857.79,185.50 Q 857.63,187.66 855.69,189.44 Q 851.84,192.96 836.83,207.34 Q 835.61,208.50 835.19,209.58 Q 834.66,210.93 834.63,212.38 Q 834.58,214.44 835.81,216.24 Q 838.06,219.53 841.79,219.04 Q 844.04,218.74 847.02,216.24 Q 852.81,211.37 858.03,206.76 Q 859.30,205.64 859.28,203.97 L 858.96,185.25 L 858.79,174.74 A 1.26,1.21 22.5 0 0 858.41,173.88 Q 857.49,172.99 857.13,174.15 Q 856.98,174.62 857.10,175.36 Q 857.90,180.40 857.79,185.50 ZM 866.17,175.05 L 866.23,197.80 Q 866.23,199.70 867.43,198.20 Q 875.94,187.47 871.66,174.22 A 0.76,0.63 78.3 0 0 871.00,173.69 L 867.28,173.84 A 1.21,1.16 88.8 0 0 866.17,175.05 ZM 566.32,225.30 L 568.37,222.57 A 1.47,0.39 -47.6 0 0 568.80,221.75 Q 569.31,216.15 567.25,210.91 Q 567.10,210.52 567.10,209.95 Q 567.12,208.61 566.06,207.19 Q 563.37,203.54 562.43,198.63 Q 561.16,192.00 561.15,191.96 Q 560.01,187.39 559.04,182.79 Q 558.61,180.78 555.80,181.41 A 0.70,0.70 -6.2 0 0 555.25,182.09 Q 555.25,199.38 555.25,216.14 Q 555.25,221.92 556.37,224.18 Q 558.41,228.29 563.72,229.20 Q 567.37,229.83 566.25,226.74 A 1.73,1.11 60.1 0 1 566.32,225.30 ZM 622.09,204.85 Q 627.02,208.30 632.75,207.50 Q 634.05,207.32 633.35,206.66 Q 633.13,206.46 632.72,206.32 Q 623.04,203.02 617.58,194.38 Q 614.28,189.18 608.22,187.89 Q 604.04,186.99 601.62,186.60 Q 599.19,186.21 599.37,188.67 Q 600.26,201.15 590.57,204.10 Q 589.61,204.39 589.25,204.86 Q 588.57,205.76 589.39,206.66 A 0.89,0.77 -26.9 0 0 590.23,206.87 Q 596.07,205.34 597.75,205.50 Q 602.66,205.96 606.06,209.44 Q 608.17,211.59 610.69,213.10 Q 612.64,214.26 616.20,215.02 Q 619.20,215.67 622.11,216.46 A 2.30,2.29 -89.6 0 1 623.73,218.11 Q 624.51,221.21 624.07,223.21 A 1.40,1.09 -16.2 0 1 623.52,223.97 Q 618.61,227.40 626.23,227.23 Q 628.25,227.19 628.25,225.17 Q 628.25,221.91 628.25,217.73 Q 628.25,217.65 628.35,216.28 Q 628.55,213.61 625.81,212.44 Q 621.04,210.40 621.62,205.05 A 0.30,0.29 21.4 0 1 622.09,204.85 ZM 577.34,211.04 Q 579.18,216.73 578.77,222.48 A 2.22,2.21 -16.0 0 1 577.85,224.13 Q 575.62,225.76 576.41,226.89 A 1.11,0.78 -11.7 0 0 577.25,227.25 L 581.31,227.25 A 1.47,1.45 -89.8 0 0 582.76,225.79 L 582.80,210.07 A 0.78,0.78 -11.2 0 1 583.27,209.37 Q 584.60,208.82 585.92,208.30 Q 588.43,207.30 587.30,204.88 A 1.13,0.98 -4.0 0 0 586.57,204.33 Q 578.75,202.42 577.03,194.54 A 0.62,0.62 84.7 0 0 576.44,194.05 L 563.98,193.80 A 0.70,0.70 82.8 0 0 563.30,194.68 Q 563.82,196.65 564.29,198.71 Q 564.91,201.37 565.52,202.68 Q 568.74,209.54 576.69,210.51 A 0.78,0.77 -5.2 0 1 577.34,211.04 ZM 607.50,224.18 Q 607.08,224.41 606.68,224.66 Q 605.99,225.09 605.76,225.73 Q 605.14,227.47 607.16,227.18 Q 608.04,227.05 608.85,227.14 Q 610.24,227.30 611.58,226.96 A 0.71,0.67 -7.6 0 0 612.10,226.32 L 612.20,217.12 A 1.81,1.65 16.0 0 0 611.27,215.61 Q 608.34,214.00 606.08,211.67 Q 602.92,208.42 598.74,207.55 Q 596.55,207.09 597.74,208.98 Q 600.91,214.00 606.43,216.58 A 2.81,2.30 15.0 0 1 608.05,218.83 L 608.06,223.45 A 1.06,0.64 -21.7 0 1 607.50,224.18 ZM 570.51,222.07 A 2.63,2.60 -19.1 0 1 569.66,223.80 Q 567.87,225.45 568.00,226.40 Q 568.11,227.25 569.93,227.25 Q 571.42,227.25 573.07,227.25 A 1.43,1.43 -89.8 0 0 574.50,225.82 L 574.50,212.86 A 1.17,1.16 -85.0 0 0 573.54,211.71 Q 571.41,211.35 569.42,210.05 Q 568.45,209.42 568.84,210.51 Q 570.96,216.50 570.51,222.07 ZM 951.74,218.38 A 8.58 8.58 0.0 0 0 943.16,209.80 A 8.58 8.58 0.0 0 0 934.58,218.38 A 8.58 8.58 0.0 0 0 943.16,226.96 A 8.58 8.58 0.0 0 0 951.74,218.38 ZM 987.25,218.40 A 8.57 8.57 0.0 0 0 978.68,209.83 A 8.57 8.57 0.0 0 0 970.11,218.40 A 8.57 8.57 0.0 0 0 978.68,226.97 A 8.57 8.57 0.0 0 0 987.25,218.40 ZM 854.11,221.40 Q 855.67,216.48 856.79,211.30 Q 857.15,209.67 855.83,210.69 Q 851.26,214.22 846.55,218.53 Q 844.69,220.24 842.09,220.70 Q 840.02,221.08 841.22,222.81 Q 845.95,229.62 851.44,225.51 Q 853.23,224.17 854.11,221.40 ZM 281.65,218.77 Q 281.30,221.73 282.20,224.56 Q 283.16,227.61 285.30,229.24 Q 288.57,231.72 293.54,230.63 Q 295.39,230.23 293.84,229.14 Q 287.77,224.90 282.63,218.49 Q 281.80,217.46 281.65,218.77 Z"/>
<circle fill="#b799de" cx="552.72" cy="33.63" r="11.47"/>
<path fill="#b799dc" d="M 538.20,51.43 L 521.81,57.17 A 1.12,1.11 -13.8 0 1 520.33,56.29 Q 519.79,52.61 518.08,50.11 A 0.35,0.34 -27.6 0 1 518.25,49.59 L 540.24,41.25 A 1.98,1.89 -29.5 0 1 542.43,41.80 Q 545.57,45.65 550.49,46.31 Q 558.37,47.38 563.45,41.43 A 1.43,1.43 -59.2 0 1 565.06,41.02 L 588.52,50.11 A 0.55,0.53 -70.9 0 1 588.83,50.78 L 586.73,57.30 A 0.64,0.63 -72.6 0 1 585.94,57.72 Q 577.46,55.03 569.46,52.40 Q 569.28,52.34 568.21,51.87 Q 566.73,51.21 566.88,52.86 Q 567.03,54.46 565.67,53.61 Q 553.35,45.89 541.20,53.32 Q 541.15,53.35 540.45,53.85 Q 538.97,54.91 539.27,52.30 A 0.82,0.81 83.7 0 0 538.20,51.43 Z"/>
<circle fill="#884dbd" cx="161.32" cy="64.52" r="19.45"/>
<path fill="#b799de" d="M 532.18,112.36 Q 523.86,112.99 519.15,107.29 Q 517.22,104.96 516.08,100.17 Q 511.41,80.57 507.29,60.85 Q 506.28,56.02 506.26,55.65 Q 506.09,52.36 508.62,50.53 Q 511.12,48.73 514.16,49.48 Q 517.69,50.35 518.50,54.25 Q 522.53,73.59 527.07,92.82 A 0.57,0.50 76.6 0 0 527.69,93.26 L 530.57,92.56 A 1.62,1.45 -12.9 0 1 532.50,93.62 Q 533.43,97.93 535.47,102.16 Q 537.43,106.23 541.28,106.80 Q 544.98,107.34 547.17,104.36 Q 550.07,100.44 546.77,94.67 Q 545.55,92.55 547.97,92.54 L 557.68,92.50 Q 559.43,92.49 558.50,93.99 Q 556.96,96.48 556.71,99.45 Q 556.44,102.72 558.03,104.73 Q 560.11,107.34 564.30,106.74 Q 566.39,106.44 567.65,104.74 Q 571.25,99.84 572.75,93.98 Q 573.20,92.24 575.21,92.56 L 579.81,93.29 A 0.61,0.53 -78.5 0 0 580.43,92.82 Q 584.58,75.15 588.38,57.41 Q 589.27,53.25 590.23,51.82 Q 592.31,48.72 596.33,49.46 Q 598.68,49.89 600.07,51.51 Q 601.79,53.52 601.25,56.00 Q 596.89,75.97 592.52,95.94 Q 590.74,104.08 588.55,107.01 Q 583.86,113.26 574.49,112.30 A 0.47,0.45 -86.6 0 0 573.99,112.76 Q 573.45,139.95 573.93,167.14 Q 573.94,167.46 573.80,167.70 Q 573.72,167.83 573.63,167.95 A 0.19,0.19 49.8 0 1 573.31,167.92 Q 570.80,162.80 570.06,160.69 Q 569.18,158.16 567.23,158.88 Q 566.21,159.25 565.56,160.45 Q 565.03,161.41 564.63,162.62 A 2.04,2.04 -81.7 0 1 562.77,164.01 Q 559.02,164.13 556.29,166.83 A 0.83,0.69 -53.3 0 1 555.46,167.03 Q 554.87,166.76 554.99,166.36 A 0.84,0.83 -75.6 0 0 554.37,165.30 Q 550.44,164.44 551.01,167.00 Q 551.50,169.23 548.65,169.34 Q 546.73,169.41 546.75,171.33 Q 546.80,175.22 549.80,178.71 Q 551.07,180.19 551.06,182.14 Q 550.95,199.97 551.00,218.50 Q 551.01,224.18 547.55,227.06 Q 544.29,229.78 539.96,228.91 Q 535.47,228.01 533.25,223.25 Q 532.50,221.63 532.63,216.39 Q 532.77,210.74 532.77,210.61 Q 532.87,194.25 532.76,178.67 A 1.27,1.27 3.2 0 1 534.18,177.40 Q 540.55,178.16 541.15,174.13 Q 541.43,172.17 539.61,168.26 Q 536.55,161.73 533.85,155.05 Q 532.81,152.48 532.80,149.63 Q 532.75,131.23 532.69,112.82 A 0.47,0.46 -2.3 0 0 532.18,112.36 Z"/>
<circle fill="#572175" cx="677.10" cy="70.46" r="19.52"/>
<circle fill="#b799de" cx="553.17" cy="70.77" r="19.59"/>
<circle fill="#b799de" cx="279.44" cy="73.72" r="19.46"/>
<circle fill="#ab6ede" cx="434.03" cy="72.57" r="16.98"/>
<circle fill="#ab6ede" cx="861.20" cy="77.24" r="16.87"/>
<circle fill="#6d2c92" cx="75.26" cy="80.20" r="16.60"/>
<circle fill="#6d2c92" cx="741.55" cy="90.54" r="20.36"/>
<path fill="#6d2c92" d="M 817.27,78.38 Q 825.65,82.04 828.54,89.71 Q 831.20,96.76 828.64,103.80 Q 825.92,111.29 817.94,114.69 Q 812.35,117.06 806.53,115.79 Q 801.03,114.59 796.86,110.65 Q 792.00,106.06 791.18,99.37 Q 790.35,92.61 793.53,87.06 Q 796.81,81.33 803.67,78.41 A 0.93,0.92 -13.7 0 0 804.23,77.49 Q 803.83,72.21 807.77,70.78 Q 811.15,69.55 814.05,71.37 Q 817.05,73.25 816.85,77.69 A 0.71,0.69 -77.1 0 0 817.27,78.38 Z"/>
<path fill="#ab6ede" d="M 185.82,207.81 Q 185.87,214.67 185.60,221.52 Q 185.49,224.22 184.15,225.53 Q 181.96,227.66 178.97,226.24 Q 177.23,225.41 176.81,223.64 Q 176.45,222.14 176.50,220.00 Q 176.64,214.24 176.19,207.60 A 0.72,0.71 -5.9 0 0 175.37,206.94 Q 173.68,207.20 172.76,206.41 Q 172.02,205.78 172.20,204.23 Q 173.69,191.37 175.05,178.50 Q 175.16,177.46 174.53,177.89 Q 174.33,178.03 174.20,178.32 Q 171.00,185.54 170.56,190.06 Q 170.31,192.68 168.66,193.78 Q 167.04,194.84 165.15,193.96 Q 163.06,192.98 163.25,190.25 Q 163.73,183.27 167.44,175.72 Q 170.94,168.58 177.71,165.14 Q 180.46,163.74 184.58,163.59 Q 191.56,163.33 194.50,163.75 Q 207.57,165.62 211.07,153.27 Q 212.04,149.81 216.92,150.39 A 0.83,0.83 18.1 0 0 217.73,149.98 Q 221.61,143.26 223.61,136.71 Q 227.64,123.53 228.27,109.20 Q 228.31,108.42 227.64,108.81 Q 226.42,109.52 226.14,108.56 A 1.40,0.53 -57.7 0 1 226.33,107.64 L 227.16,105.91 A 0.48,0.42 19.5 0 0 226.82,105.31 Q 217.48,102.67 215.44,93.56 Q 213.16,83.43 220.14,77.27 Q 223.58,74.24 227.62,73.67 Q 232.34,73.01 236.19,75.81 Q 244.34,81.74 242.98,91.34 Q 242.20,96.81 239.34,100.24 Q 236.10,104.12 230.42,105.24 A 0.76,0.76 68.9 0 0 229.92,106.37 Q 230.57,107.45 231.27,108.74 Q 232.07,110.25 229.77,109.19 A 0.54,0.53 12.7 0 0 229.00,109.67 Q 228.82,131.71 218.06,151.24 A 1.34,1.11 55.2 0 0 217.98,152.16 Q 218.45,153.77 217.75,156.25 Q 214.19,168.89 200.44,171.40 A 0.67,0.66 81.4 0 0 199.90,172.14 Q 201.72,187.17 203.30,201.46 Q 203.66,204.69 203.62,205.05 Q 203.34,207.62 199.85,207.23 A 0.55,0.54 2.9 0 0 199.25,207.77 Q 199.25,214.62 199.31,221.50 Q 199.35,226.86 194.25,226.75 Q 192.11,226.71 190.98,225.05 Q 190.27,224.00 190.17,221.78 Q 189.89,214.93 189.93,208.06 A 0.61,0.49 -88.5 0 0 189.46,207.44 L 186.30,207.25 A 0.55,0.45 -89.1 0 0 185.82,207.81 Z"/>
<path fill="#b799dc" d="M 533.38,81.73 Q 533.62,79.64 534.78,81.39 Q 538.37,86.77 543.65,90.41 A 1.16,1.16 -76.9 0 1 544.14,91.18 Q 544.71,94.41 546.06,96.94 Q 547.23,99.11 546.86,101.23 Q 546.49,103.36 544.70,104.63 Q 542.61,106.11 540.24,104.88 Q 538.72,104.08 537.50,101.91 Q 532.14,92.41 533.38,81.73 Z"/>
<path fill="#b799dc" d="M 571.18,82.44 Q 571.92,81.56 571.97,82.71 Q 572.44,93.97 567.19,102.94 Q 566.15,104.72 564.09,105.26 Q 562.20,105.76 560.56,104.75 Q 558.65,103.58 558.28,101.38 Q 557.98,99.59 559.28,96.41 Q 560.25,94.06 561.47,91.20 A 2.60,2.58 -5.9 0 1 562.43,90.03 Q 567.91,86.35 571.18,82.44 Z"/>
<path fill="#884dbd" d="M 161.03,200.87 Q 159.88,212.86 159.75,215.25 Q 159.42,221.50 154.94,224.94 Q 151.65,227.46 147.04,226.35 Q 140.03,224.67 138.74,217.50 Q 138.26,214.85 136.96,212.51 Q 135.78,210.39 135.75,210.32 Q 122.57,183.92 119.31,154.50 Q 119.26,154.08 118.93,153.61 Q 118.24,152.64 118.46,151.44 Q 121.77,132.91 112.54,116.65 A 1.77,1.76 -46.1 0 1 112.51,114.97 Q 118.70,103.29 125.31,91.81 Q 126.21,90.25 129.61,88.67 Q 135.38,85.99 141.76,85.73 Q 164.70,84.79 180.75,85.50 Q 184.41,85.66 189.95,87.26 Q 194.12,88.45 196.72,91.47 Q 197.55,92.44 200.70,98.05 Q 211.23,116.79 221.26,135.80 A 1.47,1.39 38.3 0 1 221.40,136.75 Q 220.21,142.53 216.96,147.73 A 2.34,2.33 19.5 0 1 214.68,148.81 Q 212.16,148.48 210.87,150.11 Q 209.17,152.26 208.81,154.64 A 1.27,1.26 -75.3 0 1 207.12,155.63 Q 205.05,154.85 203.99,153.18 A 1.34,1.14 -57.8 0 1 203.86,152.27 Q 205.43,145.31 202.69,139.81 Q 198.98,132.39 191.26,131.02 Q 186.15,130.12 181.39,132.02 Q 176.17,134.09 173.55,138.89 Q 170.41,144.64 171.75,150.94 Q 173.12,157.41 179.40,161.67 Q 180.23,162.23 179.29,162.58 Q 170.32,165.92 165.91,174.70 Q 162.75,180.99 161.86,187.89 Q 161.33,191.98 162.89,194.22 Q 165.47,197.93 170.98,194.41 Q 171.84,193.86 171.66,194.86 Q 170.54,200.79 170.72,206.17 Q 170.79,208.22 172.83,208.45 Q 175.13,208.71 174.87,210.69 Q 174.73,211.74 174.72,211.82 Q 174.43,218.48 175.40,226.15 A 0.69,0.69 3.6 0 1 174.63,226.92 Q 164.04,225.61 163.07,216.30 Q 162.27,208.65 161.50,201.00 Q 161.47,200.69 161.35,200.59 Q 161.08,200.36 161.03,200.87 Z"/>
<circle fill="#572175" cx="368.41" cy="104.28" r="17.59"/>
<path fill="#ab6ede" d="M 417.94,179.81 L 406.86,179.69 A 0.79,0.79 -85.3 0 1 406.09,178.78 L 416.42,112.54 A 1.88,1.87 -64.0 0 0 415.85,110.87 Q 414.61,109.72 414.15,112.33 Q 410.85,131.08 407.35,149.79 Q 406.49,154.41 405.34,155.94 Q 402.76,159.34 397.56,156.44 Q 395.36,155.21 395.93,152.03 Q 399.95,129.79 404.01,107.55 Q 404.65,104.04 406.04,100.77 Q 408.48,95.03 413.93,92.98 Q 415.71,92.31 419.16,92.27 Q 420.95,92.25 422.73,92.14 Q 424.64,92.01 426.28,92.09 Q 436.02,92.54 445.75,92.00 Q 446.80,91.94 450.01,92.12 Q 456.85,92.49 460.50,98.00 Q 462.26,100.66 463.13,103.88 Q 463.17,104.00 464.37,110.13 Q 467.47,126.01 470.31,141.94 Q 471.23,147.09 471.40,148.93 A 0.68,0.62 -14.5 0 1 470.97,149.59 L 465.56,151.81 Q 463.92,152.49 464.50,155.75 Q 464.78,157.33 463.84,157.14 Q 463.37,157.04 462.99,156.48 Q 461.36,154.08 460.84,151.18 Q 457.34,131.76 453.87,112.32 Q 453.38,109.59 451.83,111.13 A 1.02,0.91 64.5 0 0 451.58,111.99 L 461.92,179.00 A 0.47,0.45 85.0 0 1 461.49,179.54 L 450.27,179.72 A 0.78,0.73 -0.4 0 0 449.50,180.45 Q 449.48,202.38 449.25,223.25 Q 449.22,226.24 446.92,228.03 Q 444.99,229.53 442.28,229.61 Q 438.46,229.73 436.51,226.67 Q 435.32,224.79 435.30,220.94 Q 435.21,202.26 435.26,181.11 A 1.48,1.46 14.4 0 0 434.49,179.82 Q 432.58,178.79 432.60,181.50 Q 432.75,201.75 432.75,222.00 Q 432.75,224.98 431.24,226.98 Q 429.83,228.85 427.07,229.43 Q 422.53,230.38 420.11,226.81 Q 418.76,224.83 418.70,220.86 Q 418.37,200.59 418.43,180.31 A 0.49,0.49 -89.4 0 0 417.94,179.81 Z"/>
<path fill="#572175" d="M 678.70,164.79 L 675.49,164.74 A 0.52,0.49 -88.9 0 0 674.99,165.25 Q 674.67,191.26 674.74,217.26 Q 674.75,221.83 673.60,224.04 Q 671.73,227.62 667.71,228.49 Q 664.04,229.28 661.06,227.40 Q 658.90,226.04 657.70,223.71 Q 656.82,222.01 656.80,218.99 Q 656.53,165.78 656.44,112.57 A 0.82,0.70 -80.6 0 0 656.00,111.84 Q 654.80,111.35 654.31,112.56 Q 647.60,129.18 640.86,145.79 Q 639.35,149.52 637.47,150.87 Q 634.05,153.32 630.49,150.34 Q 628.83,148.96 628.50,147.01 Q 628.14,144.92 628.94,142.94 Q 631.98,135.33 644.32,105.18 Q 647.17,98.22 649.46,96.13 Q 653.43,92.50 660.00,92.50 Q 677.42,92.50 694.85,92.50 Q 700.39,92.50 703.01,93.57 Q 707.24,95.30 709.44,99.28 Q 711.05,102.19 711.21,107.52 Q 711.33,111.47 711.21,116.08 Q 711.15,118.24 710.10,119.81 L 699.60,135.54 Q 699.31,135.98 699.31,135.44 L 699.25,112.76 A 1.77,1.30 -69.9 0 0 698.98,111.82 Q 698.07,110.52 697.63,111.97 Q 697.50,112.39 697.50,113.05 Q 697.50,125.52 697.50,137.63 Q 697.50,139.42 696.47,140.89 Q 693.95,144.48 691.50,148.06 Q 689.50,150.97 689.50,153.25 Q 689.50,155.99 688.10,157.34 Q 687.36,158.05 687.33,158.09 Q 683.53,162.51 683.52,168.50 Q 683.51,180.59 683.50,192.69 Q 683.50,194.00 683.25,208.30 Q 683.11,216.30 683.46,223.94 Q 683.59,226.65 686.30,226.69 Q 689.62,226.74 690.18,224.22 Q 690.26,223.88 690.24,220.27 Q 690.14,196.79 690.46,173.31 Q 690.53,168.21 690.54,168.19 Q 690.85,165.58 692.35,163.25 A 1.13,0.90 26.6 0 1 693.63,162.98 L 697.03,164.39 A 0.77,0.64 13.6 0 1 697.50,165.02 Q 697.50,191.25 697.50,217.50 Q 697.50,219.99 697.09,221.87 Q 696.63,223.99 695.18,225.71 Q 691.39,230.24 685.31,228.19 Q 681.82,227.01 680.36,223.76 Q 679.50,221.86 679.51,217.61 Q 679.54,191.46 679.19,165.30 A 0.51,0.50 -89.4 0 0 678.70,164.79 Z"/>
<path fill="#6d2c92" d="M 89.37,111.52 Q 87.35,116.43 85.81,121.52 Q 84.11,127.11 81.07,132.02 Q 79.71,134.24 77.27,135.79 Q 70.95,139.82 64.43,143.51 A 0.47,0.47 59.5 0 0 64.26,144.17 Q 66.79,148.24 67.50,153.00 Q 72.59,187.16 77.86,222.48 Q 78.11,224.16 76.79,225.24 Q 74.85,226.81 73.21,225.23 Q 72.31,224.37 72.00,222.46 Q 70.91,215.75 69.77,209.05 A 0.60,0.60 -4.0 0 0 69.19,208.55 L 28.91,208.25 A 1.90,1.88 -84.3 0 0 27.05,209.79 Q 25.88,215.93 24.85,223.17 Q 24.33,226.77 20.64,225.54 A 2.02,2.01 8.1 0 1 19.25,223.70 Q 19.14,220.84 19.59,217.98 Q 24.68,185.36 29.75,152.75 Q 30.28,149.32 31.94,146.90 Q 37.78,138.43 48.75,137.98 Q 49.89,137.93 50.88,137.36 Q 59.99,132.13 68.74,126.87 Q 70.89,125.57 71.84,123.72 Q 72.89,121.69 73.49,119.45 Q 76.14,109.58 79.81,101.81 Q 81.63,97.97 85.89,95.98 Q 90.88,93.64 94.93,97.33 Q 108.62,109.79 114.81,126.88 Q 117.16,133.35 117.39,139.39 Q 117.56,144.19 116.85,148.97 Q 115.87,155.47 115.86,155.57 Q 114.25,169.27 112.53,182.74 Q 112.29,184.67 112.99,186.49 Q 118.64,200.93 124.06,215.44 Q 125.00,217.94 125.01,219.96 Q 125.01,222.25 123.51,224.10 Q 121.25,226.86 117.25,226.50 Q 115.11,226.31 113.56,224.90 Q 112.53,223.97 111.58,221.65 Q 102.91,200.38 98.69,188.06 Q 97.88,185.71 98.33,182.89 Q 98.63,181.01 100.11,178.19 Q 103.65,171.44 107.28,164.73 Q 107.45,164.42 107.47,164.10 Q 107.56,162.36 106.46,164.13 Q 99.23,175.76 95.56,183.56 Q 94.67,185.47 94.76,188.51 Q 95.17,202.71 95.65,216.91 Q 95.78,220.98 94.80,222.92 Q 93.08,226.29 89.10,226.44 Q 86.24,226.56 84.25,224.94 Q 82.00,223.12 81.75,220.00 Q 81.27,213.97 80.85,184.79 Q 80.81,182.30 81.81,180.05 Q 87.24,167.87 93.20,155.92 Q 94.13,154.05 93.64,152.03 Q 90.55,139.31 86.16,126.47 A 1.55,1.51 -46.2 0 1 86.15,125.52 Q 88.32,118.76 90.50,112.00 Q 90.80,111.06 90.06,111.02 A 0.80,0.65 -75.0 0 0 89.37,111.52 ZM 46.05,147.49 Q 45.31,146.27 44.71,144.96 A 0.58,0.55 67.9 0 0 44.02,144.65 Q 40.03,145.96 37.65,149.07 Q 35.97,151.27 35.24,156.01 Q 31.79,178.33 28.33,201.63 A 0.71,0.71 4.2 0 0 29.03,202.44 L 68.23,202.44 A 0.48,0.48 85.8 0 0 68.70,201.89 Q 65.86,182.35 62.98,163.66 Q 62.96,163.52 62.26,158.21 Q 61.76,154.43 60.83,150.77 Q 60.45,149.26 59.45,148.08 Q 58.15,146.55 56.64,147.89 Q 52.54,151.52 48.06,149.39 Q 46.84,148.81 46.05,147.49 Z"/>
<path fill="#b799de" d="M 234.88,156.83 Q 232.16,154.81 232.43,151.64 Q 232.47,151.12 233.79,146.52 Q 238.01,131.88 242.25,117.25 Q 244.63,109.05 246.29,105.02 Q 249.31,97.70 255.93,95.97 Q 257.73,95.50 268.12,95.50 Q 282.29,95.50 296.46,95.50 Q 301.87,95.50 303.99,96.11 Q 307.98,97.27 310.48,100.47 A 1.81,1.81 -40.4 0 1 310.28,102.91 Q 302.48,110.11 295.31,116.31 Q 291.82,119.34 291.08,123.19 Q 290.32,127.15 292.48,130.51 Q 294.66,133.90 299.21,135.05 A 1.06,1.04 7.9 0 1 300.00,136.07 L 299.83,150.31 A 0.90,0.87 -14.4 0 1 299.37,151.06 Q 293.91,154.11 289.05,158.07 Q 286.55,160.11 288.75,162.27 L 299.01,172.32 A 3.33,2.74 26.5 0 1 299.99,174.51 L 299.76,207.90 Q 299.75,209.05 299.01,208.17 Q 287.49,194.48 296.86,177.81 Q 298.05,175.68 296.23,173.89 L 286.51,164.40 Q 284.40,162.33 282.92,164.81 Q 281.05,167.92 278.18,167.34 A 0.81,0.81 4.4 0 0 277.21,168.17 Q 277.33,170.61 277.18,172.69 Q 277.07,174.34 276.24,177.09 Q 272.03,191.11 275.88,205.13 Q 277.10,209.60 277.25,212.53 Q 277.59,219.43 277.00,224.00 Q 276.74,225.98 275.21,227.80 Q 273.92,229.33 271.93,230.22 Q 265.55,233.08 260.81,227.44 Q 259.19,225.50 259.18,222.71 Q 259.18,220.36 259.17,220.28 Q 259.00,217.10 259.00,211.50 Q 259.01,163.94 259.00,116.38 Q 259.00,115.66 258.75,115.16 Q 257.93,113.46 257.10,116.03 Q 250.95,135.15 244.05,154.01 Q 243.27,156.14 242.16,156.93 Q 240.68,157.99 238.60,158.00 A 1.55,1.55 -80.6 0 0 237.15,159.04 Q 225.73,192.21 213.81,225.31 Q 212.93,227.76 212.16,231.58 A 0.84,0.82 87.8 0 1 211.58,232.22 Q 208.72,233.04 209.18,230.62 Q 209.31,229.93 210.17,228.55 Q 210.78,227.55 211.17,226.43 Q 222.99,192.51 235.36,158.44 A 1.41,1.40 28.6 0 0 234.88,156.83 Z"/>
<path fill="#ab6ede" d="M 856.78,113.86 Q 855.47,113.77 856.23,114.83 Q 863.86,125.45 874.31,133.95 A 2.29,2.23 15.0 0 1 875.11,135.29 Q 878.23,151.39 882.75,166.44 Q 882.78,166.53 883.33,168.04 Q 884.73,171.94 880.25,172.01 Q 873.78,172.11 866.64,171.78 A 0.66,0.66 0.9 0 1 866.01,171.13 Q 865.92,166.14 863.44,162.57 Q 863.39,162.50 861.50,160.50 Q 859.94,158.85 860.15,156.89 Q 860.35,155.09 859.38,153.59 L 849.55,138.42 A 4.79,4.64 30.9 0 1 848.79,135.58 Q 849.19,128.23 849.37,120.44 Q 849.37,120.37 849.16,112.69 Q 849.02,107.33 850.20,102.06 A 1.81,1.75 74.2 0 1 850.66,101.20 Q 858.05,93.82 868.28,97.77 Q 874.22,100.06 875.62,106.33 Q 876.62,110.80 875.90,114.82 Q 875.56,116.70 874.35,115.23 Q 870.47,110.52 866.40,106.05 Q 866.03,105.65 865.70,105.38 Q 863.73,103.78 864.63,106.01 Q 864.79,106.41 865.11,106.78 Q 866.73,108.70 868.25,110.70 Q 876.19,121.14 887.56,127.69 Q 890.74,129.52 899.68,135.74 Q 902.58,137.75 903.25,139.72 Q 904.40,143.09 901.00,145.50 Q 898.11,147.55 894.52,145.25 Q 889.91,142.29 885.35,139.26 Q 885.27,139.20 879.45,135.50 Q 870.31,129.68 864.06,122.19 Q 860.39,117.78 858.80,115.99 Q 858.51,115.66 857.98,114.79 Q 857.44,113.91 856.78,113.86 Z"/>
<path fill="#572175" d="M 349.67,156.16 Q 362.17,155.69 375.50,154.75 Q 381.92,154.30 384.96,158.43 Q 386.29,160.24 386.25,163.41 Q 386.17,169.45 385.50,176.50 Q 384.89,182.90 383.30,203.61 Q 382.89,208.92 381.64,211.14 Q 379.21,215.47 373.93,214.93 Q 369.98,214.53 368.00,211.88 Q 365.93,209.12 366.25,204.75 Q 367.38,189.24 368.81,173.06 A 0.78,0.77 0.9 0 0 367.99,172.22 L 358.25,172.78 A 0.37,0.36 -13.0 0 0 357.93,173.28 Q 368.46,199.04 350.94,220.49 A 0.84,0.83 -48.3 0 1 349.71,220.57 L 339.69,210.82 A 0.66,0.64 -47.8 0 1 339.66,209.95 Q 344.60,203.99 345.96,196.70 Q 347.28,189.57 344.81,182.60 Q 342.23,175.30 336.27,170.45 Q 330.54,165.78 323.27,164.53 Q 311.50,162.49 300.90,170.63 A 1.13,1.13 -41.1 0 1 299.41,170.53 L 289.68,160.80 A 0.77,0.77 46.7 0 1 289.71,159.68 Q 297.51,152.82 307.67,149.97 Q 307.73,149.96 309.36,149.65 Q 311.76,149.19 313.81,146.81 Q 322.95,136.21 332.04,125.99 A 0.64,0.64 -54.4 0 0 331.88,125.01 L 321.42,118.95 A 0.91,0.89 38.9 0 0 320.37,119.05 Q 314.68,124.12 309.25,128.94 Q 305.48,132.29 303.06,133.06 Q 298.47,134.51 295.16,131.07 Q 292.45,128.26 292.51,124.68 Q 292.55,121.89 294.34,119.70 Q 294.50,119.50 298.06,116.18 Q 310.09,104.94 316.06,100.56 Q 317.92,99.20 320.57,99.69 Q 322.05,99.96 324.61,101.39 Q 351.44,116.40 361.44,122.56 Q 368.21,126.74 366.64,133.17 Q 365.87,136.35 361.44,141.42 Q 355.41,148.31 349.21,155.17 Q 348.28,156.21 349.67,156.16 Z"/>
<path fill="#6d2c92" d="M 777.32,139.94 Q 777.62,140.65 777.93,139.95 L 790.82,110.84 A 0.59,0.59 36.2 0 1 791.80,110.69 Q 794.83,114.15 798.75,116.49 Q 802.62,118.81 807.12,119.45 Q 819.72,121.27 828.40,111.11 A 0.76,0.76 -41.1 0 1 829.61,111.19 Q 843.44,132.43 857.19,153.56 Q 858.83,156.08 858.77,159.51 A 1.08,1.08 -68.2 0 0 859.12,160.33 Q 863.33,164.10 864.17,169.31 Q 864.20,169.47 864.32,179.20 Q 864.59,201.23 864.47,223.25 Q 864.45,226.43 861.74,224.94 A 0.89,0.83 -77.5 0 1 861.30,224.19 Q 860.59,201.18 860.75,195.00 Q 861.07,183.00 860.77,171.00 Q 860.65,166.41 857.15,163.79 A 0.65,0.60 -45.5 0 0 856.37,163.83 Q 852.63,166.96 847.35,165.02 A 0.64,0.64 -65.1 0 0 846.57,165.31 Q 844.93,168.20 844.77,171.50 A 1.54,1.03 76.6 0 1 844.44,172.39 Q 843.41,173.48 841.98,172.70 A 1.02,0.91 -80.7 0 1 841.50,171.95 Q 840.94,166.77 843.95,162.98 A 1.22,1.21 47.6 0 0 844.01,161.55 L 830.65,141.21 Q 830.09,140.35 830.03,141.37 Q 829.77,146.31 830.08,151.48 Q 830.31,155.41 831.40,161.46 Q 834.46,178.43 837.31,195.44 Q 837.93,199.10 837.95,200.69 A 0.55,0.54 -2.8 0 1 837.44,201.24 L 830.69,201.67 A 0.54,0.52 -1.2 0 0 830.18,202.18 Q 830.05,209.41 829.84,216.65 Q 829.74,220.37 828.42,222.55 Q 824.93,228.33 818.19,226.33 Q 814.90,225.35 813.25,222.90 Q 811.46,220.27 811.43,216.75 Q 811.37,209.78 811.66,202.82 A 1.12,0.86 -73.3 0 0 811.33,201.96 Q 810.34,201.13 808.87,201.81 A 0.78,0.77 -13.9 0 0 808.42,202.54 Q 808.64,209.42 808.41,215.96 Q 808.24,220.70 807.03,222.81 Q 805.01,226.34 800.50,226.75 Q 794.33,227.32 791.70,222.92 Q 790.25,220.49 790.25,214.80 Q 790.25,208.76 790.25,202.39 A 0.61,0.60 -85.6 0 0 789.74,201.79 Q 787.39,201.40 785.29,201.73 Q 781.39,202.34 782.02,198.71 Q 786.06,175.60 790.21,152.50 Q 790.25,152.23 790.23,152.01 Q 790.09,150.85 789.50,152.21 Q 785.07,162.48 783.81,164.81 Q 782.45,167.35 779.28,168.18 Q 775.47,169.18 772.74,167.34 Q 770.97,166.14 769.39,162.35 Q 766.53,155.48 763.51,148.56 Q 762.74,146.79 762.75,148.72 Q 762.93,182.53 762.54,215.87 Q 762.49,220.18 761.13,222.33 Q 759.33,225.19 756.02,226.21 Q 753.08,227.13 750.00,226.05 Q 745.08,224.34 744.01,219.39 Q 743.75,218.17 743.75,211.09 Q 743.75,189.17 743.78,167.25 Q 743.78,165.46 740.92,166.22 A 0.56,0.56 -7.4 0 0 740.50,166.76 Q 740.27,190.02 740.25,213.29 Q 740.25,219.03 739.08,221.53 Q 736.87,226.27 731.37,226.51 Q 727.38,226.69 724.56,224.53 Q 721.25,222.00 721.25,217.50 Q 721.25,177.25 721.25,136.98 Q 721.25,135.83 720.62,136.79 L 706.60,158.21 A 1.65,1.62 44.9 0 0 706.62,160.02 Q 709.65,164.56 709.02,169.19 A 0.95,0.91 82.2 0 1 708.49,169.92 Q 706.19,170.96 705.81,168.15 Q 705.47,165.67 703.94,162.72 A 1.00,1.00 68.9 0 0 702.79,162.21 Q 697.10,163.72 693.38,160.58 A 0.63,0.58 44.8 0 0 692.61,160.55 Q 689.02,163.42 689.00,167.00 Q 688.82,195.25 688.51,223.50 A 1.25,1.12 71.5 0 1 688.14,224.36 Q 686.48,225.89 685.50,224.20 Q 685.06,223.44 685.07,222.09 Q 685.29,195.30 685.32,168.50 Q 685.32,161.62 690.86,157.07 A 1.13,1.11 -23.4 0 0 691.26,156.08 Q 691.06,154.28 691.46,152.61 Q 691.75,151.39 692.93,149.56 Q 707.13,127.58 721.53,105.74 A 0.49,0.48 -55.9 0 1 722.22,105.60 Q 724.07,106.93 725.81,108.42 Q 736.08,117.25 748.37,113.59 Q 752.06,112.49 755.29,110.21 Q 758.43,107.99 761.09,105.02 A 0.58,0.58 53.7 0 1 762.06,105.17 L 777.32,139.94 Z"/>
<path fill="#884dbd" d="M 518.50,123.34 A 0.60,0.60 -36.3 0 0 519.36,123.47 Q 523.91,119.93 526.91,123.16 Q 528.29,124.64 529.61,127.28 Q 530.92,129.88 530.50,132.25 Q 529.42,138.35 527.68,132.55 A 2.18,2.18 -7.4 0 0 525.66,131.00 Q 522.59,130.92 521.07,128.76 Q 520.52,127.97 520.44,128.93 Q 519.98,134.14 516.44,136.98 Q 513.09,139.66 508.55,139.35 Q 502.67,138.95 499.57,132.93 Q 498.96,131.74 499.02,130.48 Q 499.10,128.89 498.35,129.03 Q 497.36,129.20 495.24,130.62 A 1.85,1.83 -59.3 0 1 494.08,130.92 Q 491.52,130.69 491.03,133.29 Q 490.85,134.21 490.70,134.55 Q 489.79,136.65 489.00,134.25 Q 487.40,129.40 490.79,124.58 Q 494.71,119.01 499.64,123.42 A 0.48,0.46 -49.6 0 0 500.32,123.35 Q 502.70,120.45 504.81,119.56 Q 513.34,115.99 518.50,123.34 Z"/>
<path fill="#ab6ede" d="M 923.25,165.79 Q 924.98,165.30 926.04,163.75 L 960.59,163.75 A 0.66,0.66 90.0 0 0 961.25,163.09 L 961.25,126.88 A 0.39,0.39 1.4 0 1 961.66,126.49 Q 977.89,127.10 988.81,138.44 Q 996.79,146.72 998.46,158.02 Q 999.95,168.12 996.30,177.67 Q 992.66,187.21 984.61,193.46 Q 977.01,199.36 967.25,201.07 Q 951.23,203.87 937.75,193.25 Q 925.82,183.85 924.06,167.79 Q 923.99,167.23 923.76,166.77 Q 923.52,166.27 923.25,165.79 Z"/>
<path fill="#b799dc" d="M 312.72,145.43 Q 311.11,147.60 309.54,147.93 Q 306.10,148.65 302.37,149.87 A 0.85,0.85 80.9 0 1 301.25,149.06 L 301.25,136.08 A 1.09,1.08 -2.6 0 1 302.24,135.00 Q 305.48,134.72 307.82,132.58 Q 309.92,130.68 312.03,128.60 Q 313.50,127.15 313.50,129.22 L 313.50,143.07 A 3.96,3.95 63.4 0 1 312.72,145.43 Z"/>
<circle fill="#ab6ede" cx="187.89" cy="147.30" r="14.87"/>
<path fill="#884dbd" d="M 498.43,196.55 L 488.38,196.50 A 0.61,0.61 -83.2 0 1 487.79,195.75 L 498.50,152.23 Q 499.30,149.00 496.12,150.04 Q 483.96,154.01 470.98,158.45 Q 467.50,159.65 466.50,156.50 Q 465.55,153.50 468.34,152.60 Q 469.43,152.24 469.52,152.21 Q 483.53,146.73 497.56,141.31 Q 499.68,140.50 502.49,140.62 Q 505.40,140.75 505.52,140.75 Q 509.56,140.75 513.60,140.75 Q 520.06,140.75 520.38,140.81 Q 522.84,141.23 524.79,142.86 Q 526.17,144.01 527.47,146.70 Q 533.17,158.49 538.55,170.43 Q 539.51,172.58 539.42,173.69 Q 539.21,176.10 535.74,175.75 Q 533.91,175.56 533.18,173.88 Q 529.05,164.36 524.30,154.76 Q 523.08,152.29 521.52,150.66 Q 519.97,149.04 520.50,151.23 L 531.08,195.70 A 0.44,0.41 82.1 0 1 530.70,196.24 L 520.87,196.47 A 0.63,0.59 -0.5 0 0 520.25,197.06 Q 520.25,211.00 520.29,224.75 Q 520.31,230.66 514.75,229.50 Q 510.60,228.64 510.89,224.21 Q 511.01,222.40 511.01,222.28 Q 511.15,210.01 510.75,197.75 Q 510.69,195.84 509.00,196.59 A 0.82,0.72 79.8 0 0 508.56,197.32 Q 508.45,211.54 508.50,225.75 Q 508.51,229.07 504.49,229.42 Q 500.72,229.74 499.53,227.07 Q 498.98,225.84 499.08,222.34 Q 499.44,209.70 498.96,197.06 A 0.53,0.53 88.9 0 0 498.43,196.55 Z"/>
<path fill="#ffffff" d="M 48.06,149.39 Q 52.54,151.52 56.64,147.89 Q 58.15,146.55 59.45,148.08 Q 60.45,149.26 60.83,150.77 Q 61.76,154.43 62.26,158.21 Q 62.96,163.52 62.98,163.66 Q 65.86,182.35 68.70,201.89 A 0.48,0.48 85.8 0 1 68.23,202.44 L 29.03,202.44 A 0.71,0.71 4.2 0 1 28.33,201.63 Q 31.79,178.33 35.24,156.01 Q 35.97,151.27 37.65,149.07 Q 40.03,145.96 44.02,144.65 A 0.58,0.55 67.9 0 1 44.71,144.96 Q 45.31,146.27 46.05,147.49 Q 46.84,148.81 48.06,149.39 Z"/>
<path fill="#a971d9" d="M 926.04,163.75 Q 924.98,165.30 923.25,165.79 L 905.14,147.76 A 1.26,1.25 42.3 0 1 905.06,146.07 Q 906.57,144.25 907.95,145.93 Q 908.67,146.80 908.75,146.89 Q 917.15,155.57 926.04,163.75 Z"/>
<path fill="#51256c" d="M 616.50,159.29 Q 615.54,159.31 615.00,158.54 L 626.42,149.86 A 1.28,0.87 -51.8 0 1 627.31,149.58 Q 627.95,149.69 627.68,150.39 Q 627.55,150.71 627.20,151.00 Q 621.98,155.32 616.50,159.29 Z"/>
<path fill="#884dbd" d="M 196.98,162.58 Q 195.04,162.48 196.68,161.44 Q 200.15,159.24 202.20,155.67 Q 203.28,153.79 202.96,155.92 L 202.20,160.91 A 1.10,1.03 -7.3 0 1 201.52,161.73 Q 199.08,162.68 196.98,162.58 Z"/>
<path fill="#51256c" d="M 615.00,158.54 Q 615.54,159.31 616.50,159.29 L 585.93,182.70 Q 584.46,183.82 586.29,184.12 L 596.83,185.85 A 0.80,0.80 -85.3 0 1 597.50,186.64 Q 597.50,189.52 597.50,192.05 Q 597.50,195.34 596.56,197.28 Q 594.09,202.33 588.37,202.33 Q 584.85,202.33 582.47,200.55 Q 579.73,198.50 579.25,194.75 Q 578.64,190.00 579.15,183.68 A 0.57,0.49 -85.7 0 1 579.68,183.15 L 581.45,183.32 A 1.40,0.79 17.5 0 0 582.34,183.13 L 615.00,158.54 ZM 594.11,192.88 A 5.92 5.92 0.0 0 0 588.19,186.96 A 5.92 5.92 0.0 0 0 582.27,192.88 A 5.92 5.92 0.0 0 0 588.19,198.80 A 5.92 5.92 0.0 0 0 594.11,192.88 Z"/>
<path fill="#572175" d="M 565.58,164.71 L 567.49,160.43 Q 567.88,159.57 568.24,160.48 Q 571.83,169.43 575.68,178.25 Q 577.13,181.56 577.23,184.51 Q 577.35,187.85 577.00,191.18 A 0.58,0.56 -86.6 0 1 576.44,191.69 L 563.25,191.75 A 0.69,0.67 83.6 0 1 562.59,191.21 L 560.28,180.80 A 1.38,1.36 -8.6 0 0 558.82,179.74 Q 549.56,180.52 548.45,172.54 A 1.52,1.51 -8.2 0 1 549.73,170.83 Q 555.99,169.92 558.91,166.87 A 1.75,0.90 -59.6 0 1 559.73,166.35 L 564.94,165.24 A 0.92,0.87 -83.1 0 0 565.58,164.71 Z"/>
<path fill="#572175" d="M 284.51,165.50 A 0.45,0.45 -49.7 0 1 285.19,165.44 L 295.36,175.49 A 1.13,1.11 -51.6 0 1 295.51,176.89 Q 290.97,184.11 291.15,192.17 Q 291.32,199.66 295.35,206.23 Q 299.49,213.00 306.70,216.45 Q 313.25,219.58 320.17,219.26 Q 327.32,218.93 333.74,214.90 A 0.75,0.74 51.3 0 1 334.65,215.01 L 345.05,225.28 A 0.47,0.46 49.6 0 1 345.00,226.00 Q 332.32,235.03 317.91,234.75 Q 307.90,234.55 298.73,229.80 Q 285.97,223.19 279.85,210.17 Q 275.43,200.76 275.64,190.81 Q 275.93,177.28 284.51,165.50 Z"/>
<path fill="#a971d9" d="M 846.96,168.61 A 2.03,2.03 -76.4 0 1 848.69,167.55 Q 853.40,167.41 856.54,166.19 A 0.73,0.69 -30.7 0 1 857.34,166.37 Q 859.19,168.48 859.19,171.06 A 0.94,0.94 0.1 0 1 858.25,172.00 Q 854.54,172.00 851.02,172.00 Q 850.92,172.00 848.98,172.10 Q 844.93,172.31 846.96,168.61 Z"/>
<path fill="#a971d9" d="M 850.04,174.23 A 0.60,0.58 -81.6 0 1 850.68,173.74 Q 852.28,173.93 853.72,173.51 A 1.21,1.20 77.4 0 1 855.25,174.49 Q 855.78,177.94 856.16,181.40 Q 856.17,181.49 856.45,183.09 Q 856.94,185.83 854.91,187.91 Q 850.94,191.95 846.97,195.44 Q 846.02,196.28 846.25,195.01 L 850.04,174.23 Z"/>
<path fill="#a971d9" d="M 858.96,185.25 L 857.79,185.50 Q 857.90,180.40 857.10,175.36 Q 856.98,174.62 857.13,174.15 Q 857.49,172.99 858.41,173.88 A 1.26,1.21 22.5 0 1 858.79,174.74 L 858.96,185.25 Z"/>
<path fill="#a971d9" d="M 866.17,175.05 A 1.21,1.16 88.8 0 1 867.28,173.84 L 871.00,173.69 A 0.76,0.63 78.3 0 1 871.66,174.22 Q 875.94,187.47 867.43,198.20 Q 866.23,199.70 866.23,197.80 L 866.17,175.05 Z"/>
<path fill="#b799dc" d="M 566.32,225.30 A 1.73,1.11 60.1 0 0 566.25,226.74 Q 567.37,229.83 563.72,229.20 Q 558.41,228.29 556.37,224.18 Q 555.25,221.92 555.25,216.14 Q 555.25,199.38 555.25,182.09 A 0.70,0.70 -6.2 0 1 555.80,181.41 Q 558.61,180.78 559.04,182.79 Q 560.01,187.39 561.15,191.96 Q 561.16,192.00 562.43,198.63 Q 563.37,203.54 566.06,207.19 Q 567.12,208.61 567.10,209.95 Q 567.10,210.52 567.25,210.91 Q 569.31,216.15 568.80,221.75 A 1.47,0.39 -47.6 0 1 568.37,222.57 L 566.32,225.30 Z"/>
<path fill="#ab6ede" d="M 858.96,185.25 L 859.28,203.97 Q 859.30,205.64 858.03,206.76 Q 852.81,211.37 847.02,216.24 Q 844.04,218.74 841.79,219.04 Q 838.06,219.53 835.81,216.24 Q 834.58,214.44 834.63,212.38 Q 834.66,210.93 835.19,209.58 Q 835.61,208.50 836.83,207.34 Q 851.84,192.96 855.69,189.44 Q 857.63,187.66 857.79,185.50 L 858.96,185.25 Z"/>
<path fill="#572175" d="M 621.62,205.05 Q 621.04,210.40 625.81,212.44 Q 628.55,213.61 628.35,216.28 Q 628.25,217.65 628.25,217.73 Q 628.25,221.91 628.25,225.17 Q 628.25,227.19 626.23,227.23 Q 618.61,227.40 623.52,223.97 A 1.40,1.09 -16.2 0 0 624.07,223.21 Q 624.51,221.21 623.73,218.11 A 2.30,2.29 -89.6 0 0 622.11,216.46 Q 619.20,215.67 616.20,215.02 Q 612.64,214.26 610.69,213.10 Q 608.17,211.59 606.06,209.44 Q 602.66,205.96 597.75,205.50 Q 596.07,205.34 590.23,206.87 A 0.89,0.77 -26.9 0 1 589.39,206.66 Q 588.57,205.76 589.25,204.86 Q 589.61,204.39 590.57,204.10 Q 600.26,201.15 599.37,188.67 Q 599.19,186.21 601.62,186.60 Q 604.04,186.99 608.22,187.89 Q 614.28,189.18 617.58,194.38 Q 623.04,203.02 632.72,206.32 Q 633.13,206.46 633.35,206.66 Q 634.05,207.32 632.75,207.50 Q 627.02,208.30 622.09,204.85 A 0.30,0.29 21.4 0 0 621.62,205.05 Z"/>
<path fill="#ffffff" d="M 594.11,192.88 A 5.92 5.92 0.0 0 1 588.19,198.80 A 5.92 5.92 0.0 0 1 582.27,192.88 A 5.92 5.92 0.0 0 1 588.19,186.96 A 5.92 5.92 0.0 0 1 594.11,192.88 ZM 589.54,191.87 A 0.54,0.54 0.3 0 1 589.17,191.50 L 588.75,190.00 A 0.54,0.54 -44.9 0 0 587.71,189.99 L 587.26,191.47 A 0.54,0.54 0.8 0 1 586.88,191.83 L 585.39,192.25 A 0.54,0.54 44.5 0 0 585.37,193.29 L 586.86,193.75 A 0.54,0.54 -13.4 0 1 587.22,194.12 L 587.64,195.62 A 0.54,0.54 -45.3 0 0 588.68,195.63 L 589.14,194.15 A 0.54,0.54 -88.8 0 1 589.51,193.79 L 591.01,193.37 A 0.54,0.54 44.5 0 0 591.02,192.33 L 589.54,191.87 Z"/>
<path fill="#51256c" d="M 589.54,191.87 L 591.02,192.33 A 0.54,0.54 45.2 0 1 591.01,193.37 L 589.51,193.79 A 0.54,0.54 -89.3 0 0 589.14,194.15 L 588.68,195.63 A 0.54,0.54 -48.5 0 1 587.64,195.62 L 587.22,194.12 A 0.54,0.54 -9.3 0 0 586.86,193.75 L 585.37,193.29 A 0.54,0.54 45.2 0 1 585.39,192.25 L 586.88,191.83 A 0.54,0.54 0.8 0 0 587.26,191.47 L 587.71,189.99 A 0.54,0.54 -44.7 0 1 588.75,190.00 L 589.17,191.50 A 0.54,0.54 0.9 0 0 589.54,191.87 Z"/>
<path fill="#572175" d="M 576.69,210.51 Q 568.74,209.54 565.52,202.68 Q 564.91,201.37 564.29,198.71 Q 563.82,196.65 563.30,194.68 A 0.70,0.70 82.8 0 1 563.98,193.80 L 576.44,194.05 A 0.62,0.62 84.7 0 1 577.03,194.54 Q 578.75,202.42 586.57,204.33 A 1.13,0.98 -4.0 0 1 587.30,204.88 Q 588.43,207.30 585.92,208.30 Q 584.60,208.82 583.27,209.37 A 0.78,0.78 -11.2 0 0 582.80,210.07 L 582.76,225.79 A 1.47,1.45 -89.8 0 1 581.31,227.25 L 577.25,227.25 A 1.11,0.78 -11.7 0 1 576.41,226.89 Q 575.62,225.76 577.85,224.13 A 2.22,2.21 -16.0 0 0 578.77,222.48 Q 579.18,216.73 577.34,211.04 A 0.78,0.77 -5.2 0 0 576.69,210.51 Z"/>
<path fill="#51256c" d="M 608.06,223.45 L 608.05,218.83 A 2.81,2.30 15.0 0 0 606.43,216.58 Q 600.91,214.00 597.74,208.98 Q 596.55,207.09 598.74,207.55 Q 602.92,208.42 606.08,211.67 Q 608.34,214.00 611.27,215.61 A 1.81,1.65 16.0 0 1 612.20,217.12 L 612.10,226.32 A 0.71,0.67 -7.6 0 1 611.58,226.96 Q 610.24,227.30 608.85,227.14 Q 608.04,227.05 607.16,227.18 Q 605.14,227.47 605.76,225.73 Q 605.99,225.09 606.68,224.66 Q 607.08,224.41 607.50,224.18 A 1.06,0.64 -21.7 0 0 608.06,223.45 Z"/>
<path fill="#51256c" d="M 570.51,222.07 Q 570.96,216.50 568.84,210.51 Q 568.45,209.42 569.42,210.05 Q 571.41,211.35 573.54,211.71 A 1.17,1.16 -85.0 0 1 574.50,212.86 L 574.50,225.82 A 1.43,1.43 -89.7 0 1 573.07,227.25 Q 571.42,227.25 569.93,227.25 Q 568.11,227.25 568.00,226.40 Q 567.87,225.45 569.66,223.80 A 2.63,2.60 -19.1 0 0 570.51,222.07 Z"/>
<circle fill="#ab6ede" cx="943.16" cy="218.38" r="8.58"/>
<circle fill="#ab6ede" cx="978.68" cy="218.40" r="8.57"/>
<path fill="#a971d9" d="M 851.44,225.51 Q 845.95,229.62 841.22,222.81 Q 840.02,221.08 842.09,220.70 Q 844.69,220.24 846.55,218.53 Q 851.26,214.22 855.83,210.69 Q 857.15,209.67 856.79,211.30 Q 855.67,216.48 854.11,221.40 Q 853.23,224.17 851.44,225.51 Z"/>
<path fill="#b799dc" d="M 281.65,218.77 Q 281.80,217.46 282.63,218.49 Q 287.77,224.90 293.84,229.14 Q 295.39,230.23 293.54,230.63 Q 288.57,231.72 285.30,229.24 Q 283.16,227.61 282.20,224.56 Q 281.30,221.73 281.65,218.77 Z"/>
</svg>
